<svg width="40" height="40" viewBox="0 0 40 40" fill="none" xmlns="http://www.w3.org/2000/svg">
<mask id="path-1-outside-1_40_4886" maskUnits="userSpaceOnUse" x="4" y="4" width="30" height="32" fill="black">
<rect fill="white" x="4" y="4" width="30" height="32"/>
<path d="M15.5464 27.3427L15.4583 27.1236C15.6378 26.6989 15.7142 26.2377 15.6815 25.7775C15.6723 25.6307 15.6064 25.4931 15.4979 25.3937L14.1306 24.1353C14.0216 24.0374 13.8801 23.9838 13.7335 23.9843C13.2723 23.9894 12.819 24.1041 12.4104 24.3184L12.1844 24.2502C11.9641 23.8446 11.6505 23.4969 11.2692 23.2361C11.1487 23.1523 11.0003 23.1181 10.8552 23.1406L9.02069 23.4266C8.87564 23.4491 8.74464 23.5264 8.65526 23.6429C8.37103 24.0068 8.17746 24.4333 8.09064 24.887L7.89682 25.0203H7.89656C7.44226 24.9399 6.97517 24.968 6.53363 25.1026C6.39266 25.1447 6.2734 25.2392 6.20062 25.3669L5.28132 26.9806C5.2093 27.1085 5.18887 27.2592 5.22411 27.4017C5.33137 27.8494 5.54333 28.2654 5.84262 28.6154L5.82653 28.8499C5.47999 29.155 5.21083 29.5378 5.04099 29.9671C4.98634 30.1038 4.98634 30.2562 5.04099 30.3928L5.72742 32.1181V32.1179C5.78233 32.2543 5.88677 32.3646 6.01983 32.4264C6.43837 32.6215 6.89703 32.7152 7.35851 32.6999L7.53012 32.8595V32.8592C7.55284 33.3202 7.68436 33.7691 7.91394 34.1693C7.98595 34.2972 8.10445 34.3922 8.24515 34.4346L10.0218 34.9747C10.0757 34.9916 10.1318 35 10.1883 35C10.2774 34.9997 10.3655 34.9788 10.4452 34.9387C10.8589 34.7342 11.2179 34.4341 11.493 34.0635L11.7258 34.0275C12.1005 34.2962 12.5336 34.4726 12.9894 34.5424C13.1347 34.5659 13.2833 34.5324 13.4041 34.4484L14.9338 33.3957V33.396C15.0548 33.3127 15.1391 33.1861 15.1695 33.0423C15.267 32.5913 15.2566 32.1237 15.1386 31.6776L15.253 31.4728C15.6973 31.3487 16.1062 31.1206 16.445 30.8075C16.5538 30.7084 16.6205 30.5716 16.631 30.4247L16.7614 28.5725C16.7722 28.4259 16.726 28.2811 16.632 28.168C16.3406 27.811 15.9685 27.528 15.5464 27.3426L15.5464 27.3427ZM15.5086 30.0987C15.3697 30.2054 15.2154 30.2905 15.051 30.351C14.804 30.2922 14.5476 30.4033 14.4217 30.624L13.9817 31.3952L13.982 31.3949C13.8561 31.6151 13.89 31.8916 14.0655 32.0745C14.0964 32.2466 14.1012 32.4223 14.0798 32.5957L12.9587 33.3675H12.9585C12.7889 33.3259 12.6265 33.2587 12.4768 33.1683C12.3686 32.9385 12.1219 32.8077 11.8711 32.8468L10.9965 32.9824C10.7457 33.0214 10.5503 33.2209 10.5171 33.4727C10.4012 33.6039 10.2664 33.7173 10.1167 33.8085L8.81431 33.4127H8.81405C8.74102 33.2538 8.69224 33.0853 8.66952 32.9121C8.78162 32.6844 8.7303 32.4101 8.54362 32.2382L7.89038 31.6371C7.70345 31.4652 7.42586 31.4371 7.20852 31.5679C7.0341 31.5587 6.86198 31.5242 6.69752 31.4654L6.19419 30.2001C6.27284 30.0441 6.37473 29.9006 6.49629 29.7749C6.744 29.7205 6.92659 29.5093 6.94422 29.2563L7.00652 28.3706C7.0244 28.1178 6.87347 27.8834 6.63573 27.7948C6.53383 27.6528 6.45364 27.4968 6.39721 27.3313L7.07345 26.1489C7.24429 26.1132 7.41973 26.1032 7.59338 26.1198C7.79078 26.2807 8.07042 26.2917 8.27982 26.1471L9.01143 25.6438C9.22083 25.5 9.31021 25.2354 9.23105 24.9939C9.27804 24.8258 9.3498 24.6657 9.44403 24.5186L10.7901 24.3105H10.7898C10.9244 24.4216 11.0416 24.5526 11.1371 24.6989C11.1348 24.9525 11.2998 25.1775 11.5427 25.2513L12.392 25.5092L12.3923 25.5095C12.6351 25.5833 12.8977 25.4878 13.0368 25.2755C13.1977 25.2074 13.3678 25.1639 13.5414 25.1461L14.543 26.0654C14.5402 26.2403 14.5108 26.4139 14.4562 26.5802C14.256 26.7365 14.1827 27.0059 14.2764 27.2421L14.6048 28.0675C14.6985 28.3032 14.9363 28.4487 15.1888 28.4255C15.3426 28.5088 15.483 28.6145 15.6053 28.7396L15.5086 30.0987ZM11.9758 27.1001C11.3591 26.7482 10.6142 26.7025 9.9591 26.9763C9.30405 27.25 8.81328 27.8123 8.63043 28.4985C8.44783 29.1844 8.59391 29.9164 9.02574 30.4797C9.45783 31.0431 10.1269 31.374 10.8368 31.3755C11.0411 31.3753 11.2444 31.348 11.4415 31.2943C12.0271 31.1347 12.5253 30.7491 12.8264 30.2223C13.1278 29.6955 13.2074 29.0706 13.0478 28.485C12.8882 27.8995 12.5026 27.4015 11.9758 27.1001ZM11.8333 29.6548C11.6568 29.9636 11.3468 30.1727 10.9944 30.2207C10.642 30.2687 10.2873 30.15 10.0347 29.8997C9.78214 29.6495 9.66032 29.2958 9.70501 28.9428C9.74996 28.5902 9.9563 28.2781 10.2635 28.0991C10.5707 27.9198 10.9438 27.8935 11.273 28.0281C11.6021 28.1627 11.8501 28.4428 11.9436 28.7858C12.0243 29.0787 11.9845 29.3915 11.8333 29.6548ZM21.6363 18.4999C23.4267 18.5007 25.144 17.79 26.4104 16.5246C27.6768 15.259 28.3885 13.5421 28.389 11.7517C28.3895 9.9613 27.6789 8.24423 26.4129 6.97785C25.1473 5.71174 23.4305 5.00026 21.64 5C19.8496 4.99974 18.1326 5.71069 16.8664 6.97654C15.6005 8.2424 14.889 9.95954 14.889 11.75C14.8906 13.5391 15.6018 15.2546 16.8669 16.5203C18.1318 17.7856 19.8471 18.4976 21.6362 18.4999H21.6363ZM21.6363 6.14798V6.14773C23.1233 6.14696 24.5495 6.73712 25.6014 7.78798C26.6532 8.83908 27.2444 10.2648 27.245 11.7519C27.2455 13.2389 26.6553 14.6651 25.6042 15.7167C24.5528 16.7683 23.1271 17.3593 21.64 17.3595C20.153 17.3598 18.727 16.7694 17.6754 15.718C16.624 14.6667 16.0331 13.2406 16.0331 11.7536C16.0344 10.2679 16.6251 8.84314 17.6754 7.79204C18.7257 6.7412 20.1501 6.14975 21.6362 6.14773L21.6363 6.14798ZM33.0076 31.2088C33.0032 31.5216 32.7484 31.7729 32.4355 31.7727H32.4291C32.2775 31.7711 32.1324 31.7091 32.0264 31.6005C31.9202 31.492 31.8617 31.3457 31.8635 31.194C31.8635 31.1516 31.8768 26.9106 29.0434 24.1008C27.2895 22.3612 24.8104 21.5134 21.6469 21.569V21.5688C19.857 21.4871 18.0727 21.8241 16.4361 22.5533C16.1559 22.6684 15.8344 22.5448 15.7034 22.2716C15.5722 21.9986 15.6769 21.6704 15.9419 21.5236C17.7333 20.7225 19.6859 20.3474 21.6469 20.4278C25.1317 20.3637 27.8747 21.3287 29.8574 23.3C33.0354 26.4551 33.012 31.0162 33.0097 31.2091L33.0076 31.2088Z"/>
</mask>
<path d="M15.5464 27.3427L15.4583 27.1236C15.6378 26.6989 15.7142 26.2377 15.6815 25.7775C15.6723 25.6307 15.6064 25.4931 15.4979 25.3937L14.1306 24.1353C14.0216 24.0374 13.8801 23.9838 13.7335 23.9843C13.2723 23.9894 12.819 24.1041 12.4104 24.3184L12.1844 24.2502C11.9641 23.8446 11.6505 23.4969 11.2692 23.2361C11.1487 23.1523 11.0003 23.1181 10.8552 23.1406L9.02069 23.4266C8.87564 23.4491 8.74464 23.5264 8.65526 23.6429C8.37103 24.0068 8.17746 24.4333 8.09064 24.887L7.89682 25.0203H7.89656C7.44226 24.9399 6.97517 24.968 6.53363 25.1026C6.39266 25.1447 6.2734 25.2392 6.20062 25.3669L5.28132 26.9806C5.2093 27.1085 5.18887 27.2592 5.22411 27.4017C5.33137 27.8494 5.54333 28.2654 5.84262 28.6154L5.82653 28.8499C5.47999 29.155 5.21083 29.5378 5.04099 29.9671C4.98634 30.1038 4.98634 30.2562 5.04099 30.3928L5.72742 32.1181V32.1179C5.78233 32.2543 5.88677 32.3646 6.01983 32.4264C6.43837 32.6215 6.89703 32.7152 7.35851 32.6999L7.53012 32.8595V32.8592C7.55284 33.3202 7.68436 33.7691 7.91394 34.1693C7.98595 34.2972 8.10445 34.3922 8.24515 34.4346L10.0218 34.9747C10.0757 34.9916 10.1318 35 10.1883 35C10.2774 34.9997 10.3655 34.9788 10.4452 34.9387C10.8589 34.7342 11.2179 34.4341 11.493 34.0635L11.7258 34.0275C12.1005 34.2962 12.5336 34.4726 12.9894 34.5424C13.1347 34.5659 13.2833 34.5324 13.4041 34.4484L14.9338 33.3957V33.396C15.0548 33.3127 15.1391 33.1861 15.1695 33.0423C15.267 32.5913 15.2566 32.1237 15.1386 31.6776L15.253 31.4728C15.6973 31.3487 16.1062 31.1206 16.445 30.8075C16.5538 30.7084 16.6205 30.5716 16.631 30.4247L16.7614 28.5725C16.7722 28.4259 16.726 28.2811 16.632 28.168C16.3406 27.811 15.9685 27.528 15.5464 27.3426L15.5464 27.3427ZM15.5086 30.0987C15.3697 30.2054 15.2154 30.2905 15.051 30.351C14.804 30.2922 14.5476 30.4033 14.4217 30.624L13.9817 31.3952L13.982 31.3949C13.8561 31.6151 13.89 31.8916 14.0655 32.0745C14.0964 32.2466 14.1012 32.4223 14.0798 32.5957L12.9587 33.3675H12.9585C12.7889 33.3259 12.6265 33.2587 12.4768 33.1683C12.3686 32.9385 12.1219 32.8077 11.8711 32.8468L10.9965 32.9824C10.7457 33.0214 10.5503 33.2209 10.5171 33.4727C10.4012 33.6039 10.2664 33.7173 10.1167 33.8085L8.81431 33.4127H8.81405C8.74102 33.2538 8.69224 33.0853 8.66952 32.9121C8.78162 32.6844 8.7303 32.4101 8.54362 32.2382L7.89038 31.6371C7.70345 31.4652 7.42586 31.4371 7.20852 31.5679C7.0341 31.5587 6.86198 31.5242 6.69752 31.4654L6.19419 30.2001C6.27284 30.0441 6.37473 29.9006 6.49629 29.7749C6.744 29.7205 6.92659 29.5093 6.94422 29.2563L7.00652 28.3706C7.0244 28.1178 6.87347 27.8834 6.63573 27.7948C6.53383 27.6528 6.45364 27.4968 6.39721 27.3313L7.07345 26.1489C7.24429 26.1132 7.41973 26.1032 7.59338 26.1198C7.79078 26.2807 8.07042 26.2917 8.27982 26.1471L9.01143 25.6438C9.22083 25.5 9.31021 25.2354 9.23105 24.9939C9.27804 24.8258 9.3498 24.6657 9.44403 24.5186L10.7901 24.3105H10.7898C10.9244 24.4216 11.0416 24.5526 11.1371 24.6989C11.1348 24.9525 11.2998 25.1775 11.5427 25.2513L12.392 25.5092L12.3923 25.5095C12.6351 25.5833 12.8977 25.4878 13.0368 25.2755C13.1977 25.2074 13.3678 25.1639 13.5414 25.1461L14.543 26.0654C14.5402 26.2403 14.5108 26.4139 14.4562 26.5802C14.256 26.7365 14.1827 27.0059 14.2764 27.2421L14.6048 28.0675C14.6985 28.3032 14.9363 28.4487 15.1888 28.4255C15.3426 28.5088 15.483 28.6145 15.6053 28.7396L15.5086 30.0987ZM11.9758 27.1001C11.3591 26.7482 10.6142 26.7025 9.9591 26.9763C9.30405 27.25 8.81328 27.8123 8.63043 28.4985C8.44783 29.1844 8.59391 29.9164 9.02574 30.4797C9.45783 31.0431 10.1269 31.374 10.8368 31.3755C11.0411 31.3753 11.2444 31.348 11.4415 31.2943C12.0271 31.1347 12.5253 30.7491 12.8264 30.2223C13.1278 29.6955 13.2074 29.0706 13.0478 28.485C12.8882 27.8995 12.5026 27.4015 11.9758 27.1001ZM11.8333 29.6548C11.6568 29.9636 11.3468 30.1727 10.9944 30.2207C10.642 30.2687 10.2873 30.15 10.0347 29.8997C9.78214 29.6495 9.66032 29.2958 9.70501 28.9428C9.74996 28.5902 9.9563 28.2781 10.2635 28.0991C10.5707 27.9198 10.9438 27.8935 11.273 28.0281C11.6021 28.1627 11.8501 28.4428 11.9436 28.7858C12.0243 29.0787 11.9845 29.3915 11.8333 29.6548ZM21.6363 18.4999C23.4267 18.5007 25.144 17.79 26.4104 16.5246C27.6768 15.259 28.3885 13.5421 28.389 11.7517C28.3895 9.9613 27.6789 8.24423 26.4129 6.97785C25.1473 5.71174 23.4305 5.00026 21.64 5C19.8496 4.99974 18.1326 5.71069 16.8664 6.97654C15.6005 8.2424 14.889 9.95954 14.889 11.75C14.8906 13.5391 15.6018 15.2546 16.8669 16.5203C18.1318 17.7856 19.8471 18.4976 21.6362 18.4999H21.6363ZM21.6363 6.14798V6.14773C23.1233 6.14696 24.5495 6.73712 25.6014 7.78798C26.6532 8.83908 27.2444 10.2648 27.245 11.7519C27.2455 13.2389 26.6553 14.6651 25.6042 15.7167C24.5528 16.7683 23.1271 17.3593 21.64 17.3595C20.153 17.3598 18.727 16.7694 17.6754 15.718C16.624 14.6667 16.0331 13.2406 16.0331 11.7536C16.0344 10.2679 16.6251 8.84314 17.6754 7.79204C18.7257 6.7412 20.1501 6.14975 21.6362 6.14773L21.6363 6.14798ZM33.0076 31.2088C33.0032 31.5216 32.7484 31.7729 32.4355 31.7727H32.4291C32.2775 31.7711 32.1324 31.7091 32.0264 31.6005C31.9202 31.492 31.8617 31.3457 31.8635 31.194C31.8635 31.1516 31.8768 26.9106 29.0434 24.1008C27.2895 22.3612 24.8104 21.5134 21.6469 21.569V21.5688C19.857 21.4871 18.0727 21.8241 16.4361 22.5533C16.1559 22.6684 15.8344 22.5448 15.7034 22.2716C15.5722 21.9986 15.6769 21.6704 15.9419 21.5236C17.7333 20.7225 19.6859 20.3474 21.6469 20.4278C25.1317 20.3637 27.8747 21.3287 29.8574 23.3C33.0354 26.4551 33.012 31.0162 33.0097 31.2091L33.0076 31.2088Z" fill="white"/>
<path d="M15.5464 27.3427L15.4583 27.1236C15.6378 26.6989 15.7142 26.2377 15.6815 25.7775C15.6723 25.6307 15.6064 25.4931 15.4979 25.3937L14.1306 24.1353C14.0216 24.0374 13.8801 23.9838 13.7335 23.9843C13.2723 23.9894 12.819 24.1041 12.4104 24.3184L12.1844 24.2502C11.9641 23.8446 11.6505 23.4969 11.2692 23.2361C11.1487 23.1523 11.0003 23.1181 10.8552 23.1406L9.02069 23.4266C8.87564 23.4491 8.74464 23.5264 8.65526 23.6429C8.37103 24.0068 8.17746 24.4333 8.09064 24.887L7.89682 25.0203H7.89656C7.44226 24.9399 6.97517 24.968 6.53363 25.1026C6.39266 25.1447 6.2734 25.2392 6.20062 25.3669L5.28132 26.9806C5.2093 27.1085 5.18887 27.2592 5.22411 27.4017C5.33137 27.8494 5.54333 28.2654 5.84262 28.6154L5.82653 28.8499C5.47999 29.155 5.21083 29.5378 5.04099 29.9671C4.98634 30.1038 4.98634 30.2562 5.04099 30.3928L5.72742 32.1181V32.1179C5.78233 32.2543 5.88677 32.3646 6.01983 32.4264C6.43837 32.6215 6.89703 32.7152 7.35851 32.6999L7.53012 32.8595V32.8592C7.55284 33.3202 7.68436 33.7691 7.91394 34.1693C7.98595 34.2972 8.10445 34.3922 8.24515 34.4346L10.0218 34.9747C10.0757 34.9916 10.1318 35 10.1883 35C10.2774 34.9997 10.3655 34.9788 10.4452 34.9387C10.8589 34.7342 11.2179 34.4341 11.493 34.0635L11.7258 34.0275C12.1005 34.2962 12.5336 34.4726 12.9894 34.5424C13.1347 34.5659 13.2833 34.5324 13.4041 34.4484L14.9338 33.3957V33.396C15.0548 33.3127 15.1391 33.1861 15.1695 33.0423C15.267 32.5913 15.2566 32.1237 15.1386 31.6776L15.253 31.4728C15.6973 31.3487 16.1062 31.1206 16.445 30.8075C16.5538 30.7084 16.6205 30.5716 16.631 30.4247L16.7614 28.5725C16.7722 28.4259 16.726 28.2811 16.632 28.168C16.3406 27.811 15.9685 27.528 15.5464 27.3426L15.5464 27.3427ZM15.5086 30.0987C15.3697 30.2054 15.2154 30.2905 15.051 30.351C14.804 30.2922 14.5476 30.4033 14.4217 30.624L13.9817 31.3952L13.982 31.3949C13.8561 31.6151 13.89 31.8916 14.0655 32.0745C14.0964 32.2466 14.1012 32.4223 14.0798 32.5957L12.9587 33.3675H12.9585C12.7889 33.3259 12.6265 33.2587 12.4768 33.1683C12.3686 32.9385 12.1219 32.8077 11.8711 32.8468L10.9965 32.9824C10.7457 33.0214 10.5503 33.2209 10.5171 33.4727C10.4012 33.6039 10.2664 33.7173 10.1167 33.8085L8.81431 33.4127H8.81405C8.74102 33.2538 8.69224 33.0853 8.66952 32.9121C8.78162 32.6844 8.7303 32.4101 8.54362 32.2382L7.89038 31.6371C7.70345 31.4652 7.42586 31.4371 7.20852 31.5679C7.0341 31.5587 6.86198 31.5242 6.69752 31.4654L6.19419 30.2001C6.27284 30.0441 6.37473 29.9006 6.49629 29.7749C6.744 29.7205 6.92659 29.5093 6.94422 29.2563L7.00652 28.3706C7.0244 28.1178 6.87347 27.8834 6.63573 27.7948C6.53383 27.6528 6.45364 27.4968 6.39721 27.3313L7.07345 26.1489C7.24429 26.1132 7.41973 26.1032 7.59338 26.1198C7.79078 26.2807 8.07042 26.2917 8.27982 26.1471L9.01143 25.6438C9.22083 25.5 9.31021 25.2354 9.23105 24.9939C9.27804 24.8258 9.3498 24.6657 9.44403 24.5186L10.7901 24.3105H10.7898C10.9244 24.4216 11.0416 24.5526 11.1371 24.6989C11.1348 24.9525 11.2998 25.1775 11.5427 25.2513L12.392 25.5092L12.3923 25.5095C12.6351 25.5833 12.8977 25.4878 13.0368 25.2755C13.1977 25.2074 13.3678 25.1639 13.5414 25.1461L14.543 26.0654C14.5402 26.2403 14.5108 26.4139 14.4562 26.5802C14.256 26.7365 14.1827 27.0059 14.2764 27.2421L14.6048 28.0675C14.6985 28.3032 14.9363 28.4487 15.1888 28.4255C15.3426 28.5088 15.483 28.6145 15.6053 28.7396L15.5086 30.0987ZM11.9758 27.1001C11.3591 26.7482 10.6142 26.7025 9.9591 26.9763C9.30405 27.25 8.81328 27.8123 8.63043 28.4985C8.44783 29.1844 8.59391 29.9164 9.02574 30.4797C9.45783 31.0431 10.1269 31.374 10.8368 31.3755C11.0411 31.3753 11.2444 31.348 11.4415 31.2943C12.0271 31.1347 12.5253 30.7491 12.8264 30.2223C13.1278 29.6955 13.2074 29.0706 13.0478 28.485C12.8882 27.8995 12.5026 27.4015 11.9758 27.1001ZM11.8333 29.6548C11.6568 29.9636 11.3468 30.1727 10.9944 30.2207C10.642 30.2687 10.2873 30.15 10.0347 29.8997C9.78214 29.6495 9.66032 29.2958 9.70501 28.9428C9.74996 28.5902 9.9563 28.2781 10.2635 28.0991C10.5707 27.9198 10.9438 27.8935 11.273 28.0281C11.6021 28.1627 11.8501 28.4428 11.9436 28.7858C12.0243 29.0787 11.9845 29.3915 11.8333 29.6548ZM21.6363 18.4999C23.4267 18.5007 25.144 17.79 26.4104 16.5246C27.6768 15.259 28.3885 13.5421 28.389 11.7517C28.3895 9.9613 27.6789 8.24423 26.4129 6.97785C25.1473 5.71174 23.4305 5.00026 21.64 5C19.8496 4.99974 18.1326 5.71069 16.8664 6.97654C15.6005 8.2424 14.889 9.95954 14.889 11.75C14.8906 13.5391 15.6018 15.2546 16.8669 16.5203C18.1318 17.7856 19.8471 18.4976 21.6362 18.4999H21.6363ZM21.6363 6.14798V6.14773C23.1233 6.14696 24.5495 6.73712 25.6014 7.78798C26.6532 8.83908 27.2444 10.2648 27.245 11.7519C27.2455 13.2389 26.6553 14.6651 25.6042 15.7167C24.5528 16.7683 23.1271 17.3593 21.64 17.3595C20.153 17.3598 18.727 16.7694 17.6754 15.718C16.624 14.6667 16.0331 13.2406 16.0331 11.7536C16.0344 10.2679 16.6251 8.84314 17.6754 7.79204C18.7257 6.7412 20.1501 6.14975 21.6362 6.14773L21.6363 6.14798ZM33.0076 31.2088C33.0032 31.5216 32.7484 31.7729 32.4355 31.7727H32.4291C32.2775 31.7711 32.1324 31.7091 32.0264 31.6005C31.9202 31.492 31.8617 31.3457 31.8635 31.194C31.8635 31.1516 31.8768 26.9106 29.0434 24.1008C27.2895 22.3612 24.8104 21.5134 21.6469 21.569V21.5688C19.857 21.4871 18.0727 21.8241 16.4361 22.5533C16.1559 22.6684 15.8344 22.5448 15.7034 22.2716C15.5722 21.9986 15.6769 21.6704 15.9419 21.5236C17.7333 20.7225 19.6859 20.3474 21.6469 20.4278C25.1317 20.3637 27.8747 21.3287 29.8574 23.3C33.0354 26.4551 33.012 31.0162 33.0097 31.2091L33.0076 31.2088Z" stroke="white" stroke-width="0.704" mask="url(#path-1-outside-1_40_4886)"/>
</svg>
