<svg width="106" height="144" viewBox="0 0 106 144" fill="none" xmlns="http://www.w3.org/2000/svg">
<g opacity="0.2">
<circle cx="43.8824" cy="3.88235" r="3.88235" fill="white"/>
<circle cx="43.8824" cy="42.7058" r="3.88235" fill="white"/>
<circle cx="43.8824" cy="23.2941" r="3.88235" fill="white"/>
<circle cx="43.8824" cy="62.1176" r="3.88235" fill="white"/>
<circle cx="82.7061" cy="3.88235" r="3.88235" fill="white"/>
<circle cx="82.7061" cy="42.7058" r="3.88235" fill="white"/>
<circle cx="82.7061" cy="23.2941" r="3.88235" fill="white"/>
<circle cx="82.7061" cy="62.1176" r="3.88235" fill="white"/>
<circle cx="63.294" cy="3.88235" r="3.88235" fill="white"/>
<circle cx="63.294" cy="42.7058" r="3.88235" fill="white"/>
<circle cx="63.294" cy="23.2941" r="3.88235" fill="white"/>
<circle cx="63.294" cy="62.1176" r="3.88235" fill="white"/>
<circle cx="102.118" cy="3.88235" r="3.88235" fill="white"/>
<circle cx="102.118" cy="42.7058" r="3.88235" fill="white"/>
<circle cx="102.118" cy="23.2941" r="3.88235" fill="white"/>
<circle cx="102.118" cy="62.1176" r="3.88235" fill="white"/>
</g>
<g opacity="0.2">
<circle cx="43.8824" cy="81.8824" r="3.88235" fill="white"/>
<circle cx="43.8824" cy="120.706" r="3.88235" fill="white"/>
<circle cx="43.8824" cy="101.294" r="3.88235" fill="white"/>
<circle cx="43.8824" cy="140.118" r="3.88235" fill="white"/>
<circle cx="82.7061" cy="81.8824" r="3.88235" fill="white"/>
<circle cx="82.7061" cy="120.706" r="3.88235" fill="white"/>
<circle cx="82.7061" cy="101.294" r="3.88235" fill="white"/>
<circle cx="82.7061" cy="140.118" r="3.88235" fill="white"/>
<circle cx="63.294" cy="81.8824" r="3.88235" fill="white"/>
<circle cx="63.294" cy="120.706" r="3.88235" fill="white"/>
<circle cx="63.294" cy="101.294" r="3.88235" fill="white"/>
<circle cx="63.294" cy="140.118" r="3.88235" fill="white"/>
<circle cx="102.118" cy="81.8824" r="3.88235" fill="white"/>
<circle cx="102.118" cy="120.706" r="3.88235" fill="white"/>
<circle cx="102.118" cy="101.294" r="3.88235" fill="white"/>
<circle cx="102.118" cy="140.118" r="3.88235" fill="white"/>
</g>
<g opacity="0.2">
<circle cx="4.70608" cy="3.88235" r="3.88235" fill="white"/>
<circle cx="4.70608" cy="42.7058" r="3.88235" fill="white"/>
<circle cx="4.70608" cy="23.2941" r="3.88235" fill="white"/>
<circle cx="4.70608" cy="62.1176" r="3.88235" fill="white"/>
<circle cx="24.1177" cy="3.88235" r="3.88235" fill="white"/>
<circle cx="24.1177" cy="42.7058" r="3.88235" fill="white"/>
<circle cx="24.1177" cy="23.2941" r="3.88235" fill="white"/>
<circle cx="24.1177" cy="62.1176" r="3.88235" fill="white"/>
</g>
<g opacity="0.2">
<circle cx="4.70608" cy="81.8824" r="3.88235" fill="white"/>
<circle cx="4.70608" cy="120.706" r="3.88235" fill="white"/>
<circle cx="4.70608" cy="101.294" r="3.88235" fill="white"/>
<circle cx="4.70608" cy="140.118" r="3.88235" fill="white"/>
<circle cx="24.1177" cy="81.8824" r="3.88235" fill="white"/>
<circle cx="24.1177" cy="120.706" r="3.88235" fill="white"/>
<circle cx="24.1177" cy="101.294" r="3.88235" fill="white"/>
<circle cx="24.1177" cy="140.118" r="3.88235" fill="white"/>
</g>
</svg>
