<svg width="40" height="40" viewBox="0 0 40 40" fill="none" xmlns="http://www.w3.org/2000/svg">
<path d="M12.0002 12C10.6407 12 9.33665 12.5399 8.3754 13.5014C7.41415 14.4627 6.87397 15.7664 6.87397 17.1259C6.87397 18.4855 7.41422 19.7895 8.3754 20.7507C9.33665 21.712 10.6407 22.2522 12.0002 22.2522C13.3598 22.2522 14.6634 21.7119 15.6247 20.7507C16.5859 19.7895 17.1261 18.4855 17.1261 17.1259C17.1251 15.7667 16.5845 14.4638 15.6236 13.5025C14.6624 12.5413 13.3594 12.0011 12.0002 12ZM12.0002 20.2498C11.1708 20.2498 10.3757 19.9206 9.78933 19.3343C9.20304 18.7477 8.87379 17.9524 8.87415 17.1234C8.87415 16.294 9.20374 15.4989 9.7904 14.9129C10.377 14.3266 11.1723 13.9977 12.0013 13.998C12.8307 13.9984 13.6255 14.328 14.2118 14.9147C14.7978 15.5013 15.1267 16.2968 15.1259 17.1259C15.1249 17.9546 14.7953 18.7488 14.2093 19.3347C13.6231 19.9203 12.8285 20.2495 12.0002 20.2498ZM19.0001 32.082V33C19.0001 33.5524 18.5522 33.9999 18.0001 33.9999C17.4477 33.9999 17.0002 33.5524 17.0002 33V31.0001C17.0002 29.2137 16.047 27.563 14.5002 26.6698C12.9531 25.7769 11.047 25.7769 9.50022 26.6698C7.95308 27.563 7.00022 29.2137 7.00022 31.0001V33C7.00022 33.5524 6.5524 33.9999 5.99995 33.9999C5.44784 33.9999 5.00004 33.5524 5.00004 33V31.0001C4.99271 28.7076 6.11084 26.5574 7.99183 25.2471C9.87308 23.9364 12.2775 23.6326 14.4253 24.4341C16.5731 25.2352 18.191 27.0398 18.7543 29.2621L31.2346 14.3576C31.5946 13.9559 32.208 13.9119 32.6217 14.2582C33.035 14.6049 33.0992 15.217 32.7664 15.6415L19.0001 32.082ZM22.0001 7.99982C21.4476 7.99982 20.9998 7.55235 20.9998 6.99991C20.9998 6.44747 21.4476 6 22.0001 6H34.0001C34.5525 6 35 6.44747 35 6.99991C35 7.55235 34.5525 7.99982 34.0001 7.99982H22.0001ZM18 9.99965H34C34.5525 9.99965 34.9999 10.4475 34.9999 10.9999C34.9999 11.552 34.5524 11.9998 34 11.9998H18C17.4475 11.9998 17.0001 11.552 17.0001 10.9999C17.0001 10.4475 17.4475 9.99965 18 9.99965Z" fill="black"/>
</svg>
