<svg width="40" height="40" viewBox="0 0 40 40" fill="none" xmlns="http://www.w3.org/2000/svg">
<path d="M10.9947 8.8991L20.0668 4.88457C20.067 4.88448 20.0672 4.8844 20.0673 4.88431C20.2434 4.80524 20.4449 4.80523 20.6209 4.88429C20.6211 4.88438 20.6213 4.88448 20.6216 4.88457L29.6983 8.89423L29.6994 8.89474C29.7444 8.91498 29.7869 8.94014 29.8261 8.96949H29.8332C30.0127 8.96949 30.1844 9.0408 30.3113 9.1674L30.3114 9.16754C30.4383 9.29436 30.5095 9.46644 30.5095 9.64576V16.368L31.3778 18.4602C31.3779 18.4604 31.378 18.4606 31.3781 18.4609C31.4665 18.6704 31.4438 18.9107 31.317 19.1M10.9947 8.8991L30.7505 19.225L30.7489 19.4C30.7492 19.4 30.7494 19.4 30.7497 19.4C30.9773 19.4018 31.1904 19.2893 31.317 19.1M10.9947 8.8991C10.9947 8.89913 10.9946 8.89917 10.9945 8.8992L10.9947 8.8991ZM31.317 19.1L31.1716 19.0026L31.3171 19.0999C31.3171 19.0999 31.3171 19.0999 31.317 19.1ZM18.6359 20.3883L18.6359 20.3883C20.2912 20.9201 22.1011 20.6283 23.5056 19.6035C24.91 18.5784 25.7397 16.9439 25.7384 15.2054C25.7342 14.1324 25.4138 13.0857 24.8188 12.1956L20.6215 14.0515C20.6214 14.0515 20.6213 14.0516 20.6212 14.0516C20.4452 14.1305 20.2437 14.1305 20.0677 14.0517L20.0678 14.0517L20.1388 13.8918L20.0672 14.0515L18.6359 20.3883ZM18.6359 20.3883C16.9806 19.8567 15.6791 18.5656 15.134 16.9146C14.6039 15.3087 14.8518 13.5503 15.7986 12.1554L18.6359 20.3883ZM28.2788 19.0915C28.2794 19.0924 28.28 19.0932 28.2805 19.094L28.4245 18.9945L28.2772 19.089C28.2777 19.0898 28.2783 19.0907 28.2788 19.0915ZM11.2306 10.2366L14.5418 11.7077C13.7065 13.0414 13.3588 14.626 13.5622 16.1909C13.7744 17.8242 14.5726 19.3251 15.8083 20.4143L15.8084 20.4143C17.0441 21.5033 18.6334 22.1067 20.2808 22.1119C21.9279 22.117 23.5211 21.5239 24.7637 20.4427C26.0064 19.3615 26.8142 17.8658 27.0368 16.2338C27.2501 14.6698 26.9122 13.0826 26.085 11.7434L29.1618 10.3764V16.355L28.2257 18.4195L11.2306 10.2366ZM12.9456 9.40021L20.3442 6.10816L27.7482 9.42414L20.3447 12.6879L12.9456 9.40021Z" fill="black" stroke="black" stroke-width="0.35"/>
<path d="M9.0233 34.977C9.15012 35.1038 9.3222 35.175 9.50151 35.175H31.4721C31.6514 35.175 31.8235 35.1038 31.9503 34.977C32.0771 34.8501 32.1483 34.6781 32.1483 34.4988L32.1483 34.4982C32.139 31.4081 30.9082 28.4475 28.7241 26.2614L28.6003 26.385L28.7241 26.2614C26.54 24.0754 23.5801 22.8419 20.4901 22.8298L20.489 22.8364L20.489 22.8299C17.398 22.8406 14.4371 24.0737 12.2516 26.2596L12.2515 26.2596C10.0663 28.4458 8.83478 31.4075 8.82524 34.4982V34.4988C8.82524 34.6781 8.89648 34.8501 9.0233 34.977ZM27.6168 27.0458C29.4909 28.8399 30.618 31.2729 30.7772 33.8578H10.2024C10.3615 31.2728 11.4887 28.8398 13.3627 27.0458C15.2811 25.2095 17.834 24.1848 20.4898 24.1848C23.1455 24.1848 25.6982 25.2095 27.6168 27.0458Z" fill="black" stroke="black" stroke-width="0.35"/>
</svg>
